<svg xmlns="http://www.w3.org/2000/svg" xmlns:xlink="http://www.w3.org/1999/xlink" version="1.1" x="0px" y="0px" viewBox="0 0 64 80" enable-background="new 0 0 64 64" xml:space="preserve"><g><path d="M60.525,26.299c-1.254,0.254-2.547,0.395-3.876,0.386c-5.338,0-10.167-2.168-13.666-5.667   c-3.499-3.499-5.669-8.328-5.669-13.666c-0.01-1.33,0.133-2.622,0.387-3.876c-4.622,1.415-9.166,3.697-12.826,7.356   c-7.819,7.818-9.407,19.8-9.482,27.804c-1.151-0.301-2.349-0.458-3.571-0.458c-3.745,0-7.261,1.457-9.903,4.098   c-0.522,0.522-0.713,1.289-0.5,1.995c0.213,0.706,0.798,1.237,1.523,1.381c7.8,1.56,13.847,7.607,15.406,15.406   c0.144,0.725,0.676,1.309,1.381,1.523c0.19,0.057,0.386,0.086,0.58,0.086c0.522,0,1.035-0.206,1.415-0.586   c2.641-2.641,4.098-6.158,4.098-9.903c0-1.222-0.157-2.419-0.458-3.57c10.033-0.085,20.813-2.492,27.804-9.483   C56.818,35.475,59.11,30.919,60.525,26.299z M43.626,28.564L41.82,33.98c-0.44,1.325-1.515,2.307-2.874,2.628   c-0.31,0.074-0.623,0.11-0.933,0.11c-1.046,0-2.056-0.411-2.818-1.173l-6.741-6.741c-0.988-0.989-1.386-2.391-1.064-3.751   c0.321-1.358,1.303-2.435,2.629-2.875l5.415-1.805c0.503-0.168,1.055-0.128,1.529,0.108c0.988,0.495,1.39,1.697,0.896,2.685   c-0.261,0.52-0.715,0.878-1.233,1.028l-5.342,1.78l6.738,6.741l1.792-5.375c0.155-0.503,0.508-0.945,1.017-1.199   c0.985-0.492,2.19-0.096,2.683,0.892l0.001,0.004C43.755,27.51,43.793,28.06,43.626,28.564z"/><path d="M62.222,3.475c-0.066-0.443-0.265-0.83-0.567-1.132c-0.301-0.302-0.688-0.5-1.131-0.565   c-0.576-0.085-9.045-1.254-18.372,0.585c-0.528,1.566-0.848,3.244-0.839,4.989c0,4.225,1.715,8.073,4.489,10.846   c2.773,2.772,6.621,4.489,10.846,4.489c1.556,0.01,3.037-0.244,4.442-0.688c0.17-0.038,0.349-0.085,0.547-0.151   C63.476,12.519,62.307,4.05,62.222,3.475z M51.631,14.37c-1.105,0-2.001-0.896-2.001-2.001c0-1.105,0.896-2.001,2.001-2.001   c1.105,0,2.001,0.896,2.001,2.001C53.632,13.474,52.736,14.37,51.631,14.37z"/></g><text x="0" y="79" fill="#000000" font-size="5px" font-weight="bold" font-family="'Helvetica Neue', Helvetica, Arial-Unicode, Arial, Sans-serif">Created by Arosh Khan</text><text x="0" y="84" fill="#000000" font-size="5px" font-weight="bold" font-family="'Helvetica Neue', Helvetica, Arial-Unicode, Arial, Sans-serif">from the Noun Project</text></svg>